<svg width="16" height="16" viewBox="0 0 24 24" fill="none" style="margin-right: 4px;"><path d="M4 18V3h12a3 3 0 013 3v2h2V6a5 5 0 00-5-5H3a1 1 0 00-1 1v16a5 5 0 005 5h1.5v-2H7a3 3 0 01-3-3z" fill="currentColor"></path><path d="M7 7a1 1 0 000 2h6a1 1 0 100-2H7zM7 11a1 1 0 100 2h3a1 1 0 100-2H7z" fill="currentColor"></path><path fill-rule="evenodd" clip-rule="evenodd" d="M15 17.5a4 4 0 00-4 4v.5a1 1 0 001 1h10a1 1 0 001-1v-.5a4 4 0 00-4-4h-4zm5.94 3.5A2 2 0 0019 19.5h-4a2 2 0 00-1.94 1.5h7.88zM18.94 16.12a3.5 3.5 0 10-3.87-5.83 3.5 3.5 0 003.87 5.83zM17 11.7a1.5 1.5 0 110 3 1.5 1.5 0 010-3z" fill="currentColor"></path></svg>