<svg width="24" height="24" viewBox="0 0 24 24" fill="none"><path d="M2.5 2a1 1 0 00-1 1v15.06c0 1.3.54 2.57 1.5 3.5A5.24 5.24 0 006.64 23h6.07a8 8 0 017.8-13.6V6.94c-.01-1.3-.55-2.57-1.51-3.5A5.24 5.24 0 0015.36 2H2.5z" fill="#5083FB"></path><circle cx="18" cy="17" r="6" fill="#1456F0"></circle><path d="M15 17c0-.41.34-.75.75-.75h4.5a.75.75 0 010 1.5h-4.5A.75.75 0 0115 17z" fill="#fff"></path><path d="M18 20a.75.75 0 01-.75-.75v-4.5a.75.75 0 011.5 0v4.5c0 .41-.34.75-.75.75z" fill="#fff"></path></svg>