<svg width="16" height="16" viewBox="0 0 24 24" fill="none" style="margin-right: 4px;"><path d="M12.44 10.96a1.96 1.96 0 11-3.92 0 1.96 1.96 0 013.92 0zM7 16.39c0 .48.4.87.87.87h5.22c.47 0 .87-.39.87-.87V16a2.66 2.66 0 00-2.64-2.64H9.64A2.66 2.66 0 007 15.98v.41zm7.83.44v-.13c0-1 0-2.05-.87-2.7h1.08c1.07 0 1.96.67 1.96 1.76v.63c0 .24-.2.44-.43.44h-1.74zm.87-4.79a1.3 1.3 0 11-2.61 0 1.3 1.3 0 012.6 0z" fill="#2B2F36"></path><path d="M1.5 5a2 2 0 012-2h4.78a4 4 0 011.4.26l2.64.99a4 4 0 001.4.25h6.78a2 2 0 012 2V19a2 2 0 01-2 2h-17a2 2 0 01-2-2V5zm19 14V7h-17v12h17z" fill="#2B2F36"></path></svg>