<svg width="38" height="39" viewBox="0 0 38 39" fill="none" xmlns="http://www.w3.org/2000/svg">
<g clip-path="url(#clip0_480_11628)">
<g clip-path="url(#clip1_480_11628)">
<mask id="mask0_480_11628" style="mask-type:luminance" maskUnits="userSpaceOnUse" x="-1" y="-1" width="40" height="40">
<path d="M-0.00683594 -0.222656H38.5227V38.3069H-0.00683594V-0.222656Z" fill="white"/>
</mask>
<g mask="url(#mask0_480_11628)">
<path d="M7.68088 16.6941C6.98223 15.9958 6.03486 15.6035 5.04707 15.6035C4.05928 15.6035 3.11191 15.9958 2.41326 16.6941L-0.00292969 19.1093L7.57231 26.6846C7.90087 27.0133 8.29098 27.274 8.72035 27.4519C9.14971 27.6298 9.60992 27.7214 10.0747 27.7214C10.5395 27.7214 10.9997 27.6298 11.429 27.4519C11.8584 27.274 12.2485 27.0133 12.5771 26.6846L15.1247 24.1369L7.68088 16.6941Z" fill="#FFB44C"/>
<path d="M22.7732 11.6597C22.4274 11.3137 22.0168 11.0393 21.5649 10.852C21.113 10.6647 20.6286 10.5684 20.1394 10.5684C19.6502 10.5684 19.1659 10.6647 18.7139 10.852C18.262 11.0393 17.8514 11.3137 17.5056 11.6597L5.03418 24.1311L7.5818 26.6788C7.91036 27.0075 8.30047 27.2682 8.72984 27.4461C9.1592 27.624 9.61942 27.7156 10.0842 27.7156C10.5489 27.7156 11.0092 27.624 11.4385 27.4461C11.8679 27.2682 12.258 27.0075 12.5866 26.6788L25.1885 14.075L22.7732 11.6597Z" fill="#F97802"/>
<path d="M21.7932 17.4697L16.7437 22.5192L20.9065 26.6821C21.2351 27.0108 21.6252 27.2716 22.0545 27.4495C22.4839 27.6274 22.9441 27.7189 23.4089 27.7189C23.8737 27.7189 24.3339 27.6274 24.7632 27.4495C25.1926 27.2716 25.5827 27.0108 25.9113 26.6821L28.4589 24.1354L21.7932 17.4697Z" fill="#FFB44C"/>
<path d="M36.1065 11.655C35.4078 10.9567 34.4605 10.5645 33.4727 10.5645C32.4849 10.5645 31.5375 10.9567 30.8389 11.655L18.3674 24.1265L20.915 26.6741C21.2436 27.0028 21.6337 27.2635 22.0631 27.4414C22.4925 27.6194 22.9527 27.7109 23.4174 27.7109C23.8822 27.7109 24.3424 27.6194 24.7718 27.4414C25.2011 27.2635 25.5912 27.0028 25.9198 26.6741L38.5217 14.0703L36.1065 11.655Z" fill="#F97802"/>
</g>
</g>
</g>
<defs>
<clipPath id="clip0_480_11628">
<rect width="38" height="38" fill="white"/>
</clipPath>
<clipPath id="clip1_480_11628">
<rect width="39.0476" height="40" fill="white" transform="translate(-0.523926 -1)"/>
</clipPath>
</defs>
</svg>
