<svg width="38" height="38" viewBox="0 0 38 38" fill="none" xmlns="http://www.w3.org/2000/svg">
<g clip-path="url(#clip0_480_11609)">
<path d="M1.90576 5.43149C1.90576 4.64452 2.552 4 3.35638 4H21.9738C23.947 4 25.8376 4.74628 27.2264 6.06921C28.622 7.39214 29.4058 9.18996 29.4058 11.0624V32.5685C29.4058 33.3555 28.7595 34 27.9551 34H9.33764C7.36451 34 5.47387 33.2537 4.08512 31.9308C2.6895 30.6079 1.90576 28.81 1.90576 26.9376V5.43149Z" fill="#8046F3"/>
<path d="M20.7982 18.9998L15.6558 13.9252L18.7839 11.5371L23.2183 15.9129L20.7982 18.9998Z" fill="white"/>
<path d="M10.5133 19L15.6558 24.0678L12.5276 26.4627L8.09326 22.0868L10.5133 19Z" fill="white"/>
<path d="M15.6558 24.0678L20.7982 19L23.2183 22.0868L18.7839 26.4627L15.6558 24.0678Z" fill="white"/>
<path d="M15.6558 24.0678L20.7982 19L23.2183 22.0868L18.7839 26.4627L15.6558 24.0678Z" fill="white"/>
<path d="M10.5133 18.9998L15.6558 13.9252L12.5276 11.5371L8.09326 15.9129L10.5133 18.9998Z" fill="white"/>
</g>
<defs>
<clipPath id="clip0_480_11609">
<rect width="27.5" height="30" fill="white" transform="translate(1.90576 4)"/>
</clipPath>
</defs>
</svg>
