<svg width="40" height="38" viewBox="0 0 40 38" fill="none" xmlns="http://www.w3.org/2000/svg">
<g clip-path="url(#clip0_480_11678)">
<g clip-path="url(#clip1_480_11678)">
<path d="M2.97168 10.2392H32.6963V31.0472C32.6963 31.8355 32.3832 32.5915 31.8259 33.149C31.2686 33.7065 30.5127 34.0198 29.7244 34.0201H5.94357C5.15529 34.0198 4.39938 33.7065 3.84207 33.149C3.28476 32.5915 2.97168 31.8355 2.97168 31.0472V10.2383V10.2392Z" fill="#FF8800"/>
<path d="M23.2335 20.7873C23.3974 20.7806 23.5603 20.7816 23.7232 20.7882C24.1344 20.8005 24.5001 20.8735 24.8203 21.0099C25.1301 21.1425 25.4001 21.3102 25.6284 21.5139C25.8482 21.7081 26.0377 21.9345 26.1902 22.1856C26.3247 22.4054 26.4384 22.6384 26.5284 22.8809C26.661 23.2409 26.7368 23.6189 26.7501 24.0017V24.4611C26.7494 24.6741 26.7431 24.887 26.7311 25.0997C26.7245 25.1451 26.7065 25.2437 26.6762 25.4066C26.6343 25.6161 26.576 25.822 26.5019 26.0224C26.4047 26.2847 26.2842 26.5377 26.1419 26.7784C25.9696 27.0697 25.7561 27.3345 25.5081 27.5647C25.2268 27.8252 24.9065 28.04 24.5588 28.2014C24.1799 28.3814 23.7375 28.4913 23.2335 28.531C22.7067 28.5784 22.234 28.5424 21.8143 28.4221C21.4264 28.3165 21.0601 28.1433 20.7324 27.9105C20.4364 27.6982 20.178 27.4378 19.9679 27.1403C19.602 26.6236 19.3628 26.0281 19.2697 25.4019C19.2316 25.159 19.2246 24.9123 19.2488 24.6677C19.281 24.3996 19.317 24.1599 19.3559 23.9477C19.4279 23.5403 19.5359 23.1415 19.6742 22.7521C19.7464 22.5491 19.8229 22.3475 19.9035 22.1477C19.9281 22.0833 19.9887 21.9535 20.0891 21.745L20.3762 21.1482L20.3781 21.1444V21.1435L20.379 21.1416L20.4444 21.007C20.5865 20.7134 20.7447 20.3884 20.9209 20.036C21.5587 18.7387 22.1998 17.443 22.8441 16.1489L22.9483 15.9434H25.0619C25.4863 16.2655 25.4863 16.2655 25.4295 16.3773C25.4181 16.4265 25.4181 16.4265 25.4105 16.4474L25.3982 16.4815L25.3868 16.508L25.3205 16.6491C25.1348 17.0338 24.9463 17.4165 24.7549 17.7983L24.3523 18.6036C24.0719 19.1673 23.7858 19.7281 23.4959 20.2861L23.2335 20.7873ZM23.0383 26.1418C23.7772 26.1418 24.376 25.4426 24.376 24.5815C24.376 23.7194 23.7763 23.0202 23.0383 23.0202C22.2994 23.0202 21.7006 23.7194 21.7006 24.5815C21.7006 25.4436 22.2994 26.1418 23.0383 26.1418ZM13.1468 26.0338H17.194L17.193 28.4448H9.81493V26.3701L9.89546 26.2678L14.4334 20.5902C14.5859 20.3931 14.6844 20.216 14.7251 20.0957C14.7602 19.9498 14.7786 19.8004 14.7801 19.6504C14.7801 19.3008 14.6759 19.0062 14.4637 18.7533C14.2552 18.5117 13.9559 18.3876 13.5466 18.3781C13.1838 18.3781 12.8967 18.4889 12.6589 18.7182C12.4145 18.9456 12.2658 19.2753 12.2165 19.7243L12.1796 20.0549H9.79883L9.81493 19.6665C9.8623 18.6111 10.2204 17.7244 10.8968 17.0196C11.578 16.3308 12.424 15.9784 13.4235 15.967C14.5186 15.9784 15.4243 16.3346 16.114 17.0319C16.8198 17.7244 17.1798 18.6083 17.1921 19.6665C17.2002 20.4927 16.9232 21.2964 16.4077 21.9421L13.1468 26.0338Z" fill="white"/>
<path d="M2.97168 7.26581C2.97168 6.47753 3.28476 5.72152 3.84207 5.16403C4.39938 4.60654 5.15529 4.29322 5.94357 4.29297H29.7244C30.5127 4.29322 31.2686 4.60654 31.8259 5.16403C32.3832 5.72152 32.6963 6.47753 32.6963 7.26581V10.2368H2.97168V7.26581Z" fill="#FFD143"/>
</g>
</g>
<defs>
<clipPath id="clip0_480_11678">
<rect width="36" height="36" fill="white" transform="translate(0 1)"/>
</clipPath>
<clipPath id="clip1_480_11678">
<rect width="36" height="36" fill="white" transform="translate(0 1)"/>
</clipPath>
</defs>
</svg>
