<svg width="38" height="38" viewBox="0 0 38 38" fill="none" xmlns="http://www.w3.org/2000/svg">
<g clip-path="url(#clip0_480_11651)">
<g clip-path="url(#clip1_480_11651)">
<g clip-path="url(#clip2_480_11651)">
<path d="M3.24878 9.11017C3.24878 8.35057 3.55053 7.62208 4.08765 7.08496C4.62477 6.54784 5.35326 6.24609 6.11286 6.24609H31.8895C32.6491 6.24609 33.3776 6.54784 33.9148 7.08496C34.4519 7.62208 34.7536 8.35057 34.7536 9.11017V29.1577C34.7537 29.5339 34.6798 29.9065 34.5359 30.2541C34.392 30.6017 34.1811 30.9175 33.9151 31.1836C33.6491 31.4496 33.3334 31.6607 32.9858 31.8047C32.6383 31.9487 32.2657 32.0228 31.8895 32.0228H6.11286C5.35326 32.0228 4.62477 31.721 4.08765 31.1839C3.55053 30.6468 3.24878 29.9183 3.24878 29.1587V9.11017Z" fill="#A7ADF4"/>
<path d="M6.11286 6.24609C5.35326 6.24609 4.62477 6.54784 4.08765 7.08496C3.55053 7.62208 3.24878 8.35057 3.24878 9.11017V29.1577C3.24865 29.5339 3.32264 29.9065 3.46652 30.2541C3.61039 30.6017 3.82134 30.9175 4.08731 31.1836C4.35327 31.4496 4.66905 31.6607 5.0166 31.8047C5.36415 31.9487 5.73666 32.0228 6.11286 32.0228H31.8895C32.6491 32.0228 33.3776 31.721 33.9148 31.1839C34.4519 30.6468 34.7536 29.9183 34.7536 29.1587V9.11017C34.7536 8.88205 34.7266 8.65973 34.6763 8.44707L20.7609 17.9344C20.2421 18.2882 19.6287 18.4775 19.0007 18.4775C18.3727 18.4775 17.7593 18.2882 17.2405 17.9344L3.32804 8.44804C3.4772 7.82107 3.83339 7.2627 4.33905 6.86315C4.84472 6.4636 5.47032 6.24621 6.11479 6.24609H6.11286Z" fill="#4954E6"/>
<path d="M2.56714 8.5594C2.56714 8.17089 2.64368 7.78619 2.79238 7.42726C2.94109 7.06834 3.15905 6.74222 3.43381 6.46755C3.70857 6.19288 4.03476 5.97503 4.39373 5.82644C4.7527 5.67785 5.13743 5.60144 5.52594 5.60156H32.16C32.5485 5.60144 32.9333 5.67785 33.2922 5.82644C33.6512 5.97503 33.9774 6.19288 34.2521 6.46755C34.5269 6.74222 34.7449 7.06834 34.8936 7.42726C35.0423 7.78619 35.1188 8.17089 35.1188 8.5594V29.2749C35.1188 30.9085 33.7946 32.2347 32.16 32.2347H5.52498C5.13634 32.2345 4.75154 32.1579 4.39254 32.009C4.03355 31.8601 3.7074 31.642 3.43273 31.367C3.15805 31.0921 2.94024 30.7657 2.79172 30.4066C2.6432 30.0474 2.56689 29.6626 2.56714 29.2739V8.56037V8.5594Z" fill="#FFDE7B"/>
<path d="M5.52594 5.60253C4.74139 5.60253 3.98895 5.91413 3.43409 6.4688C2.87924 7.02348 2.56739 7.77581 2.56714 8.56037V29.2759C2.56714 30.9094 3.8914 32.2356 5.52594 32.2356H32.16C32.9448 32.2354 33.6974 31.9234 34.2523 31.3684C34.8071 30.8134 35.1188 30.0607 35.1188 29.2759V8.56133C35.1191 8.33027 35.0925 8.09995 35.0396 7.87504L20.6612 17.6794C20.1252 18.0447 19.4916 18.2401 18.843 18.2401C18.1944 18.2401 17.5608 18.0447 17.0248 17.6794L2.64833 7.87697C2.80252 7.22896 3.17071 6.65188 3.6934 6.23899C4.21609 5.8261 4.86275 5.60152 5.52884 5.60156H5.52498L5.52594 5.60253Z" fill="#FFBC00"/>
</g>
</g>
</g>
<defs>
<clipPath id="clip0_480_11651">
<rect width="38" height="38" fill="white"/>
</clipPath>
<clipPath id="clip1_480_11651">
<rect width="35.7647" height="35.7647" fill="white" transform="translate(1.11719 1.11719)"/>
</clipPath>
<clipPath id="clip2_480_11651">
<rect width="35.7647" height="35.7647" fill="white" transform="translate(1.11719 1.11719)"/>
</clipPath>
</defs>
</svg>
