<svg width="38" height="38" viewBox="0 0 38 38" fill="none" xmlns="http://www.w3.org/2000/svg">
<g clip-path="url(#clip0_480_11666)">
<g clip-path="url(#clip1_480_11666)">
<path d="M1.04199 5.41991C1.04199 4.63791 1.67599 4.00391 2.45799 4.00391H20.875C22.7535 4.00391 24.5551 4.75015 25.8834 6.07847C27.2118 7.40679 27.958 9.20838 27.958 11.0869V32.3369C27.958 33.1199 27.324 33.7539 26.542 33.7539H8.31599C6.40105 33.7599 4.55794 33.0253 3.17199 31.7039C2.50162 31.065 1.96735 30.2972 1.60131 29.4465C1.23527 28.5958 1.04502 27.68 1.04199 26.7539V5.41991Z" fill="#3370FF"/>
<path d="M1.04199 11.7949H15.917C17.2319 11.7949 18.493 12.3173 19.4228 13.2471C20.3526 14.1769 20.875 15.438 20.875 16.7529V33.7529H8.12499C6.24646 33.7529 4.44488 33.0067 3.11655 31.6784C1.78823 30.35 1.04199 28.5485 1.04199 26.6699V11.7949Z" fill="#14C0FF"/>
<path d="M1.04199 19.5859H10.958C11.3302 19.5858 11.6988 19.659 12.0427 19.8014C12.3866 19.9438 12.699 20.1525 12.9622 20.4157C13.2254 20.6789 13.4342 20.9914 13.5765 21.3353C13.7189 21.6792 13.7921 22.0477 13.792 22.4199V33.7529H8.12499C6.24646 33.7529 4.44488 33.0067 3.11655 31.6784C1.78823 30.3501 1.04199 28.5485 1.04199 26.6699V19.5859Z" fill="#93E55E"/>
</g>
</g>
<defs>
<clipPath id="clip0_480_11666">
<rect width="29" height="34" fill="white" transform="translate(0 2)"/>
</clipPath>
<clipPath id="clip1_480_11666">
<rect width="35" height="35" fill="white" transform="translate(-3 1)"/>
</clipPath>
</defs>
</svg>
